<svg width="24" height="24" viewBox="0 0 24 24" fill="none" xmlns="http://www.w3.org/2000/svg">
<g clip-path="url(#clip0_289_7194)">
<path d="M10 18.5C9.86739 18.5 9.74021 18.4474 9.64645 18.3536C9.55268 18.2598 9.5 18.1326 9.5 18V1.00003C9.5 0.867427 9.55268 0.74025 9.64645 0.646482C9.74021 0.552713 9.86739 0.500035 10 0.500035H18.07C18.1356 0.499236 18.2006 0.512168 18.2609 0.538002C18.3212 0.563835 18.3754 0.601998 18.42 0.650035L22.42 4.65003C22.5133 4.74296 22.5671 4.86838 22.57 5.00003V18C22.57 18.1326 22.5173 18.2598 22.4236 18.3536C22.3298 18.4474 22.2026 18.5 22.07 18.5H10Z" fill="white"/>
<path d="M18.07 1L22.07 5V18H10V1H18.07ZM18.07 0H10C9.73478 0 9.48043 0.105357 9.29289 0.292893C9.10536 0.48043 9 0.734784 9 1V18C9 18.2652 9.10536 18.5196 9.29289 18.7071C9.48043 18.8946 9.73478 19 10 19H22.07C22.3352 19 22.5896 18.8946 22.7771 18.7071C22.9646 18.5196 23.07 18.2652 23.07 18V5C23.0695 4.86769 23.0427 4.73681 22.9912 4.61493C22.9397 4.49306 22.8645 4.38261 22.77 4.29L18.77 0.29C18.5837 0.105256 18.3323 0.00110462 18.07 0V0Z" fill="#748391"/>
<path d="M18.07 6H12.07V7H18.07V6Z" fill="#D4CAC8"/>
<path d="M20.07 9H12.07V10H20.07V9Z" fill="#595857"/>
<path d="M20.07 12H12.07V13H20.07V12Z" fill="#595857"/>
<path d="M20.07 15H12.07V16H20.07V15Z" fill="#595857"/>
<path d="M18.07 1V5H22.07L18.07 1Z" fill="#BFB1AC"/>
<path d="M3 23.5C2.86739 23.5 2.74021 23.4474 2.64645 23.3536C2.55268 23.2598 2.5 23.1326 2.5 23V6.00003C2.5 5.86743 2.55268 5.74025 2.64645 5.64648C2.74021 5.55271 2.86739 5.50003 3 5.50003H11C11.0656 5.49924 11.1306 5.51217 11.1909 5.538C11.2511 5.56384 11.3054 5.602 11.35 5.65004L15.35 9.65003C15.398 9.69468 15.4362 9.74889 15.462 9.80916C15.4879 9.86944 15.5008 9.93446 15.5 10V23C15.5 23.1326 15.4473 23.2598 15.3536 23.3536C15.2598 23.4474 15.1326 23.5 15 23.5H3Z" fill="white"/>
<path d="M11 6.00002L15 10V23H3V6.00002H11ZM11 5.00002H3C2.73478 5.00002 2.48043 5.10537 2.29289 5.29291C2.10536 5.48045 2 5.7348 2 6.00002V23C2 23.2652 2.10536 23.5196 2.29289 23.7071C2.48043 23.8947 2.73478 24 3 24H15C15.2652 24 15.5196 23.8947 15.7071 23.7071C15.8946 23.5196 16 23.2652 16 23V10C16.0008 9.86841 15.9755 9.73795 15.9258 9.61611C15.876 9.49427 15.8027 9.38346 15.71 9.29002L11.71 5.29002C11.6166 5.19734 11.5057 5.12401 11.3839 5.07425C11.2621 5.02448 11.1316 4.99926 11 5.00002Z" fill="#748391"/>
<path d="M11.07 11H5.07001V12H11.07V11Z" fill="#D4CAC8"/>
<path d="M10.07 14H5.07001V15H10.07V14Z" fill="#595857"/>
<path d="M13.07 17H5.07001V18H13.07V17Z" fill="#595857"/>
<path d="M13.07 20H5.07001V21H13.07V20Z" fill="#595857"/>
<path d="M11 6V10H15L11 6Z" fill="#BFB1AC"/>
</g>
<defs>
<clipPath id="clip0_289_7194">
<rect width="24" height="24" fill="white"/>
</clipPath>
</defs>
</svg>
