<?xml version="1.0" encoding="UTF-8"?>
<svg width="24px" height="24px" viewBox="0 0 24 24" version="1.1" xmlns="http://www.w3.org/2000/svg" xmlns:xlink="http://www.w3.org/1999/xlink">
    <title>48BDA50A-B2F3-49E8-AC08-5FBE703D07AE</title>
    <g id="Guidelines" stroke="none" stroke-width="1" fill="none" fill-rule="evenodd">
        <g id="Getinge_Guidelines-15-Snack-bars" transform="translate(-692.000000, -291.000000)" fill="#000000">
            <g id="Snackbar/information" transform="translate(680.000000, 280.000000)">
                <g id="Icon/Black/Information" transform="translate(12.000000, 11.000000)">
                    <path d="M12,2 C17.5228475,2 22,6.4771525 22,12 C22,17.5228475 17.5228475,22 12,22 C6.4771525,22 2,17.5228475 2,12 C2,6.4771525 6.4771525,2 12,2 Z M13.5,10 L10.5,10 L10.5,18 L13.5,18 L13.5,10 Z M12,5 C11.1715729,5 10.5,5.67157288 10.5,6.5 C10.5,7.32842712 11.1715729,8 12,8 C12.8284271,8 13.5,7.32842712 13.5,6.5 C13.5,5.67157288 12.8284271,5 12,5 Z" id="Combined-Shape"></path>
                </g>
            </g>
        </g>
    </g>
</svg>