<svg width="48" height="46" viewBox="0 0 48 46" fill="none" xmlns="http://www.w3.org/2000/svg">
<path d="M2 23C2 18.8301 3.29028 14.7538 5.70767 11.2867C8.12506 7.81956 11.561 5.11726 15.581 3.52151C19.6009 1.92576 24.0244 1.50824 28.292 2.32175C32.5596 3.13525 36.4796 5.14324 39.5564 8.0918C42.6331 11.0404 44.7284 14.797 45.5773 18.8868C46.4261 22.9766 45.9905 27.2157 44.3253 31.0682C42.6602 34.9207 39.8404 38.2135 36.2225 40.5301C32.6047 42.8468 28.3512 44.0833 24 44.0833C18.1652 44.0833 12.5695 41.862 8.44365 37.9081C4.31785 33.9542 2 28.5916 2 23Z" fill="#748391"/>
<path d="M14.76 14.5284C15.1994 13.4009 15.873 12.3707 16.74 11.5C17.6259 10.665 18.681 10.0127 19.84 9.58335C21.1101 9.0899 22.4696 8.84236 23.84 8.85502C25.4835 8.80624 27.1211 9.06671 28.66 9.62169C29.8279 10.0389 30.8959 10.6778 31.8 11.5C32.5359 12.1903 33.1147 13.0191 33.5 13.9342C33.8048 14.6805 33.9739 15.4714 34 16.2725C34.0376 17.3221 33.868 18.3691 33.5 19.3584C32.9238 20.7968 31.8967 22.0288 30.56 22.885C29.96 23.2875 29.38 23.69 28.84 24.0925C28.3019 24.4932 27.8181 24.9568 27.4 25.4725C26.9555 26.0293 26.6788 26.6922 26.6 27.3892V28.865H21.12V27.1209C21.161 26.1512 21.3846 25.1967 21.78 24.3034C22.1208 23.6154 22.5509 22.9714 23.06 22.3867C23.5352 21.8823 24.0574 21.4204 24.62 21.0067C25.1405 20.6418 25.6412 20.2515 26.12 19.8375C26.5626 19.4696 26.9407 19.036 27.24 18.5534C27.5323 18.0168 27.6638 17.4131 27.62 16.8092C27.6659 16.3313 27.6078 15.8495 27.4495 15.3942C27.2911 14.9389 27.0359 14.5201 26.7 14.1642C26.3489 13.8853 25.9438 13.6757 25.5079 13.5475C25.072 13.4192 24.6139 13.3747 24.16 13.4167C23.5085 13.4021 22.8631 13.5403 22.28 13.8192C21.7687 14.0882 21.325 14.461 20.98 14.9117C20.6277 15.3932 20.3702 15.9323 20.22 16.5025C20.0616 17.1301 19.981 17.7735 19.98 18.4192H14C14.0022 17.0886 14.2598 15.7697 14.76 14.5284ZM26.92 31.2417V37.2409H20.54V31.2417H26.92Z" fill="white"/>
</svg>
