<?xml version="1.0" encoding="UTF-8"?>
<svg width="24px" height="25px" viewBox="0 0 24 25" version="1.1" xmlns="http://www.w3.org/2000/svg" xmlns:xlink="http://www.w3.org/1999/xlink">
    <title>B79381DA-0004-4D9C-B5AE-B52602017307</title>
    <g id="Guidelines" stroke="none" stroke-width="1" fill="none" fill-rule="evenodd">
        <g id="Getinge_Guidelines-16-Snack-bars" transform="translate(-692.000000, -553.000000)" fill="#FFFFFF">
            <g id="Snackbar/Negative" transform="translate(680.000000, 542.000000)">
                <g id="Icon/White/Stop" transform="translate(12.000000, 11.000000)">
                    <g id="Group" transform="translate(0.000000, 1.000000)">
                        <path d="M11.0824672,0.529325278 C11.4901727,-0.176441759 12.5099688,-0.176441759 12.9176744,0.529325278 L12.9176744,0.529325278 L23.8565312,19.4775203 C24.2642367,20.1832873 23.7543387,21.0657622 22.9399921,21.0657622 L22.9399921,21.0657622 L1.06014944,21.0657622 C0.244738349,21.0657622 -0.264095202,20.1832873 0.143610342,19.4775203 L0.143610342,19.4775203 Z M13.44,15.36 L10.56,15.36 L10.56,18.24 L13.44,18.24 L13.44,15.36 Z M13.44,5.76 L10.56,5.76 L10.56,13.44 L13.44,13.44 L13.44,5.76 Z" id="Combined-Shape"></path>
                    </g>
                </g>
            </g>
        </g>
    </g>
</svg>