<svg xmlns="http://www.w3.org/2000/svg" width="24" height="24" viewBox="0 0 24 24">
    <g fill="none" fill-rule="evenodd">
        <g>
            <g>
                <g>
                    <g>
                        <g>
                            <path d="M0 0L24 0 24 24 0 24z" transform="translate(-1253 -423) translate(1120 400) translate(0 20) translate(130) translate(3 3)"/>
                            <path fill="#FFF" fill-rule="nonzero" d="M9.433 1.75c4.243 0 7.683 3.44 7.683 7.683 0 1.776-.61 3.463-1.705 4.818l.08.078h.803l.177.073 5.882 5.894-2.057 2.057-5.894-5.882-.073-.177v-.803l-.078-.08-.258.2c-1.308.969-2.895 1.505-4.56 1.505-4.243 0-7.683-3.44-7.683-7.683S5.19 1.75 9.433 1.75zm0 2.287c-2.986 0-5.396 2.41-5.396 5.396 0 2.985 2.41 5.396 5.396 5.396 2.985 0 5.396-2.41 5.396-5.396 0-2.986-2.41-5.396-5.396-5.396z" transform="translate(-1253 -423) translate(1120 400) translate(0 20) translate(130) translate(3 3)"/>
                        </g>
                    </g>
                </g>
            </g>
        </g>
    </g>
</svg>
