<svg id="Layer_1" data-name="Layer 1" xmlns="http://www.w3.org/2000/svg" xmlns:xlink="http://www.w3.org/1999/xlink" viewBox="0 0 24 24"><defs><style>.cls-1{fill:none;}.cls-2{fill:#c2e4e5;}.cls-3{fill:#f39200;}.cls-4{clip-path:url(#clip-path);}.cls-5{fill:#b7cc8b;}.cls-6{fill:#94b654;}</style><clipPath id="clip-path"><polygon class="cls-1" points="21.99 20 2 20 2 5 22 5 21.99 20"/></clipPath></defs><rect class="cls-1" width="24" height="24"/><rect class="cls-2" x="2" y="5" width="20" height="15"/><path class="cls-3" d="M21,9a2,2,0,1,0-2,2A2,2,0,0,0,21,9Z"/><g class="cls-4"><path class="cls-5" d="M28.65,21.35c-3.1-2.53-8.8-6.89-11.14-6.89-2.7,0-4.6,3.58-4.6,3.58v3.31Z"/><path class="cls-6" d="M17.74,20c-3.1-2.52-8.8-6.89-11.14-6.89-2.69,0-4.6,3.58-4.6,3.58V20Z"/></g></svg>