<svg width="24" height="24" viewBox="0 0 24 24" fill="none" xmlns="http://www.w3.org/2000/svg">
<g clip-path="url(#clip0_289_7200)">
<path d="M22 5.29175H2V19.6667H22V5.29175Z" fill="#C2E4E5"/>
<path d="M21 9.12492C21 8.74584 20.8827 8.37527 20.6629 8.06008C20.4432 7.74488 20.1308 7.49922 19.7654 7.35415C19.3999 7.20908 18.9978 7.17113 18.6098 7.24508C18.2219 7.31904 17.8655 7.50158 17.5858 7.76963C17.3061 8.03768 17.1156 8.3792 17.0384 8.751C16.9613 9.12279 17.0009 9.50817 17.1522 9.8584C17.3036 10.2086 17.56 10.508 17.8889 10.7186C18.2178 10.9292 18.6044 11.0416 19 11.0416C19.5304 11.0416 20.0391 10.8397 20.4142 10.4802C20.7893 10.1208 21 9.63325 21 9.12492Z" fill="#F39200"/>
<path d="M22 19.4999C22 17.7883 22 17.4999 22 15.6879C20.2024 14.8873 18.5433 14.3574 17.51 14.3574C14.81 14.3574 12.91 17.7883 12.91 17.7883V19.4999H20.5H22Z" fill="#B7CC8B"/>
<path d="M17.74 19.6666C14.64 17.2516 8.94 13.0637 6.6 13.0637C3.91 13.0637 2 16.4946 2 16.4946V19.6666H17.74Z" fill="#94B654"/>
<path d="M12.48 15.6322L11 11.0417L15.79 12.4601L22.34 18.7372L19.03 21.9092L12.48 15.6322Z" fill="#E9E4E3"/>
<path d="M11.81 13.543L11 11.0417L13.61 11.818L11.81 13.543Z" fill="black"/>
<path d="M15.7922 12.4614L12.4829 15.6328L19.0378 21.9146L22.347 18.7432L15.7922 12.4614Z" fill="#F8B55C"/>
<path d="M22.3362 18.744L19.0281 21.9165L20.6833 23.5016L23.9914 20.3292L22.3362 18.744Z" fill="#E94F35"/>
<path d="M14.5965 13.6031L13.6703 14.491L20.2264 20.7716L21.1525 19.8838L14.5965 13.6031Z" fill="#FED6A5"/>
</g>
<defs>
<clipPath id="clip0_289_7200">
<rect width="24" height="23" fill="white" transform="translate(0 0.5)"/>
</clipPath>
</defs>
</svg>
