<?xml version="1.0" encoding="UTF-8" standalone="no"?>
<svg
   xmlns:dc="http://purl.org/dc/elements/1.1/"
   xmlns:cc="http://creativecommons.org/ns#"
   xmlns:rdf="http://www.w3.org/1999/02/22-rdf-syntax-ns#"
   xmlns:svg="http://www.w3.org/2000/svg"
   xmlns="http://www.w3.org/2000/svg"
   xmlns:sodipodi="http://sodipodi.sourceforge.net/DTD/sodipodi-0.dtd"
   xmlns:inkscape="http://www.inkscape.org/namespaces/inkscape"
   id="Layer_1"
   data-name="Layer 1"
   viewBox="0 0 24 24"
   version="1.1"
   sodipodi:docname="defaultMediaGray.svg"
   inkscape:version="0.92.3 (2405546, 2018-03-11)">
  <metadata
     id="metadata893">
    <rdf:RDF>
      <cc:Work
         rdf:about="">
        <dc:format>image/svg+xml</dc:format>
        <dc:type
           rdf:resource="http://purl.org/dc/dcmitype/StillImage" />
        <dc:title></dc:title>
      </cc:Work>
    </rdf:RDF>
  </metadata>
  <sodipodi:namedview
     pagecolor="#ffffff"
     bordercolor="#666666"
     borderopacity="1"
     objecttolerance="10"
     gridtolerance="10"
     guidetolerance="10"
     inkscape:pageopacity="0"
     inkscape:pageshadow="2"
     inkscape:window-width="2398"
     inkscape:window-height="1417"
     id="namedview891"
     showgrid="false"
     inkscape:zoom="9.8333333"
     inkscape:cx="12"
     inkscape:cy="12"
     inkscape:window-x="-8"
     inkscape:window-y="-8"
     inkscape:window-maximized="1"
     inkscape:current-layer="Layer_1" />
  <defs
     id="defs876">
    <style
       id="style871">.cls-1{fill:none;}.cls-2{fill:#c2e4e5;}.cls-3{fill:#f39200;}.cls-4{clip-path:url(#clip-path);}.cls-5{fill:#b7cc8b;}.cls-6{fill:#94b654;}</style>
    <clipPath
       id="clip-path">
      <polygon
         class="cls-1"
         points="21.99 20 2 20 2 5 22 5 21.99 20"
         id="polygon873" />
    </clipPath>
  </defs>
  <rect
     class="cls-1"
     width="24"
     height="24"
     id="rect878" />
  <rect
     class="cls-2"
     x="2"
     y="5"
     width="20"
     height="15"
     id="rect880" />
  <path
     class="cls-3"
     d="M21,9a2,2,0,1,0-2,2A2,2,0,0,0,21,9Z"
     id="path882" />
  <g
     class="cls-4"
     clip-path="url(#clip-path)"
     id="g888">
    <path
       class="cls-5"
       d="M28.65,21.35c-3.1-2.53-8.8-6.89-11.14-6.89-2.7,0-4.6,3.58-4.6,3.58v3.31Z"
       id="path884" />
    <path
       class="cls-6"
       d="M17.74,20c-3.1-2.52-8.8-6.89-11.14-6.89-2.69,0-4.6,3.58-4.6,3.58V20Z"
       id="path886" />
  </g>
</svg>
