<svg width="16" height="16" viewBox="0 0 16 16" fill="none" xmlns="http://www.w3.org/2000/svg">
<g clip-path="url(#clip0_130_4956)">
<path d="M14.4533 0.627186C14.1643 0.574676 13.8654 0.633895 13.6218 0.791908C13.3783 0.949921 13.2098 1.19389 13.1533 1.47052L13.02 2.01358L12.4067 1.87302L12.2667 2.40969L12.9333 2.56302L11.7133 7.39302L10.4667 2.56302L11.1333 2.40969L11 1.87302L10.3867 2.01358L10.2533 1.47052C10.2224 1.18416 10.074 0.921307 9.84084 0.739788C9.60767 0.558268 9.30881 0.47295 9.01 0.502603C8.71119 0.532256 8.43691 0.67445 8.2475 0.897905C8.05809 1.12136 7.96906 1.40777 8 1.69413C7.99343 1.75359 7.99343 1.81356 8 1.87302L8.16667 2.69719C8.19588 2.83698 8.25403 2.96974 8.33768 3.08763C8.42133 3.20552 8.52879 3.30615 8.6537 3.38357C8.77861 3.461 8.91845 3.51365 9.06495 3.53841C9.21146 3.56317 9.36165 3.55954 9.50667 3.52774C9.64833 3.50371 9.7942 3.5335 9.91333 3.6108C9.97232 3.64889 10.0228 3.69791 10.0617 3.75496C10.1006 3.81202 10.1272 3.87596 10.14 3.94302C10.14 3.94302 10.7333 6.38996 11.3733 8.63885L10.4667 12.2358L10.6467 12.2805C10.8733 12.1719 11.2733 11.0666 11.6867 9.72496C12.1067 11.0986 12.5067 12.2039 12.7333 12.2805L12.9133 12.2358L12 8.63885C12.6667 6.39635 13.24 3.96219 13.24 3.96219C13.2528 3.89512 13.2794 3.83118 13.3183 3.77413C13.3572 3.71707 13.4077 3.66806 13.4667 3.62996C13.5241 3.58805 13.5895 3.55743 13.6593 3.53989C13.7291 3.52235 13.8019 3.51822 13.8733 3.52774C14.0152 3.5547 14.1612 3.5546 14.303 3.52744C14.4448 3.50028 14.5796 3.44659 14.6997 3.36945C14.8198 3.29231 14.9229 3.19323 15.003 3.07787C15.0831 2.96252 15.1388 2.83316 15.1667 2.69719L15.3333 1.87302C15.3399 1.81356 15.3399 1.75359 15.3333 1.69413C15.3417 1.44535 15.2579 1.20175 15.0969 1.00648C14.9358 0.811199 14.7078 0.676839 14.4533 0.627186ZM9.33333 3.13163C9.17376 3.15624 9.01028 3.12445 8.87333 3.04219C8.74165 2.95108 8.6492 2.81705 8.61333 2.66524L8.43333 1.73246C8.42724 1.69864 8.42724 1.66407 8.43333 1.63024C8.42949 1.49114 8.47782 1.35533 8.56957 1.24748C8.66132 1.13962 8.79039 1.06688 8.93333 1.04246C9.01235 1.02698 9.0938 1.02692 9.17284 1.04229C9.25188 1.05766 9.32687 1.08814 9.39333 1.13191C9.45949 1.17554 9.51595 1.23133 9.55944 1.29604C9.60293 1.36074 9.63258 1.43308 9.64667 1.50885L9.83333 2.44163C9.84324 2.48585 9.84324 2.53158 9.83333 2.5758C9.83879 2.6438 9.83016 2.71215 9.80795 2.77695C9.78574 2.84174 9.75039 2.90168 9.70392 2.95334C9.65746 3.00499 9.6008 3.04733 9.5372 3.07793C9.4736 3.10853 9.40432 3.12678 9.33333 3.13163ZM14.9333 1.73246L14.7467 2.66524C14.7108 2.81705 14.6184 2.95108 14.4867 3.04219C14.3497 3.12445 14.1862 3.15624 14.0267 3.13163C13.8846 3.11864 13.7533 3.05356 13.6601 2.94999C13.567 2.84642 13.5191 2.71235 13.5267 2.5758C13.5234 2.53113 13.5234 2.4863 13.5267 2.44163L13.7133 1.50885C13.7559 1.35307 13.8583 1.21844 14 1.13191C14.0663 1.0878 14.1413 1.05712 14.2204 1.04174C14.2995 1.02636 14.381 1.02661 14.46 1.04246C14.6023 1.06809 14.7306 1.14116 14.8221 1.24874C14.9137 1.35632 14.9625 1.49147 14.96 1.63024C14.9467 1.66219 14.9467 1.69413 14.94 1.73246H14.9333Z" fill="#BFB1AC" stroke="#BFB1AC" stroke-width="0.75" stroke-miterlimit="10"/>
<path d="M11.6867 8.44722C11.7211 8.4481 11.7553 8.44226 11.7872 8.43005C11.8192 8.41784 11.8482 8.39952 11.8726 8.3762C11.8969 8.35289 11.916 8.32507 11.9287 8.29444C11.9415 8.26381 11.9476 8.23102 11.9467 8.19806C11.9527 8.16243 11.9505 8.12598 11.9404 8.09123C11.9303 8.05648 11.9124 8.02425 11.888 7.99677C11.8636 7.96929 11.8332 7.94722 11.799 7.93209C11.7649 7.91696 11.7277 7.90912 11.69 7.90912C11.6523 7.90912 11.6151 7.91696 11.581 7.93209C11.5468 7.94722 11.5164 7.96929 11.492 7.99677C11.4676 8.02425 11.4497 8.05648 11.4396 8.09123C11.4295 8.12598 11.4273 8.16243 11.4333 8.19806C11.4324 8.23047 11.4383 8.26273 11.4507 8.29293C11.463 8.32312 11.4815 8.35065 11.5051 8.37387C11.5287 8.3971 11.557 8.41555 11.5882 8.42815C11.6193 8.44075 11.6528 8.44723 11.6867 8.44722Z" fill="black"/>
<path d="M7.12 3.18273C6.83101 3.13022 6.53208 3.18944 6.28851 3.34745C6.04493 3.50546 5.8765 3.74943 5.82 4.02606L5.68667 4.56912L5.07333 4.42856L4.93333 4.96523L5.6 5.11856L4.35333 9.94856L3.13333 5.11856L3.8 4.96523L3.66667 4.42856L3.05333 4.56912L2.92 4.02606C2.88906 3.7397 2.74068 3.47685 2.50751 3.29533C2.27434 3.11381 1.97548 3.02849 1.67667 3.05814C1.37786 3.0878 1.10358 3.22999 0.914164 3.45345C0.724752 3.6769 0.635725 3.96331 0.666667 4.24967C0.660099 4.30914 0.660099 4.3691 0.666667 4.42856L0.873333 5.25273C0.898698 5.3894 0.952494 5.51979 1.03152 5.63614C1.11055 5.75248 1.21319 5.8524 1.33333 5.92995C1.45525 6.00862 1.59255 6.06277 1.73693 6.08913C1.88132 6.11548 2.02978 6.11349 2.17333 6.08328C2.315 6.05925 2.46087 6.08904 2.58 6.16634C2.63899 6.20443 2.68943 6.25345 2.72836 6.3105C2.76729 6.36756 2.79391 6.4315 2.80667 6.49856C2.80667 6.49856 3.4 8.94551 4.04 11.1944L3.13333 14.7913L3.33333 14.8361C3.56 14.7274 3.96 13.6222 4.37333 12.2486C4.79333 13.6222 5.19333 14.7274 5.42 14.8361L5.6 14.7913L4.66667 11.1944C5.33333 8.95189 5.90667 6.51773 5.90667 6.51773C5.91942 6.45066 5.94605 6.38672 5.98497 6.32967C6.0239 6.27261 6.07434 6.2236 6.13333 6.18551C6.19072 6.14359 6.25621 6.11298 6.326 6.09543C6.3958 6.07789 6.46853 6.07376 6.54 6.08328C6.68184 6.11024 6.82783 6.11014 6.96962 6.08298C7.11142 6.05582 7.24624 6.00213 7.36636 5.92499C7.48648 5.84785 7.58956 5.74877 7.66969 5.63341C7.74981 5.51806 7.80542 5.3887 7.83333 5.25273L8 4.42856C8.00657 4.3691 8.00657 4.30914 8 4.24967C8.00837 4.00089 7.92461 3.75729 7.76355 3.56202C7.60248 3.36674 7.37451 3.23238 7.12 3.18273ZM2 5.68717C1.84042 5.71178 1.67695 5.68 1.54 5.59773C1.40831 5.50663 1.31586 5.37259 1.28 5.22078L1.10667 4.28801C1.10057 4.25418 1.10057 4.21961 1.10667 4.18578C1.10282 4.04668 1.15116 3.91087 1.2429 3.80302C1.33465 3.69516 1.46372 3.62242 1.60667 3.59801C1.68568 3.58252 1.76714 3.58246 1.84617 3.59783C1.92521 3.6132 2.0002 3.64368 2.06667 3.68745C2.13283 3.73108 2.18929 3.78687 2.23278 3.85158C2.27626 3.91628 2.30591 3.98862 2.32 4.0644L2.49333 4.99717C2.50324 5.04139 2.50324 5.08712 2.49333 5.13134C2.5044 5.26765 2.45873 5.40262 2.36629 5.50677C2.27386 5.61091 2.14217 5.67577 2 5.68717ZM7.6 4.28801L7.41333 5.22078C7.37747 5.37259 7.28502 5.50663 7.15333 5.59773C7.01638 5.68 6.85291 5.71178 6.69333 5.68717C6.55129 5.67418 6.41997 5.60911 6.3268 5.50553C6.23363 5.40196 6.18581 5.2679 6.19333 5.13134C6.19004 5.08667 6.19004 5.04184 6.19333 4.99717L6.4 4.0644C6.43756 3.91162 6.53248 3.77744 6.66667 3.68745C6.73296 3.64334 6.80795 3.61266 6.88704 3.59728C6.96614 3.5819 7.04767 3.58215 7.12667 3.59801C7.26901 3.62363 7.39729 3.69671 7.48881 3.80428C7.58032 3.91186 7.62916 4.04701 7.62667 4.18578C7.62667 4.18578 7.61333 4.24967 7.60667 4.28801H7.6Z" fill="#BFB1AC" stroke="#BFB1AC" stroke-width="0.75" stroke-miterlimit="10"/>
<path d="M4.35333 11.0028C4.38773 11.0036 4.42195 10.9978 4.45391 10.9856C4.48587 10.9734 4.5149 10.9551 4.53922 10.9317C4.56355 10.9084 4.58267 10.8806 4.59541 10.85C4.60815 10.8194 4.61425 10.7866 4.61333 10.7536C4.61934 10.718 4.61721 10.6815 4.60707 10.6468C4.59694 10.612 4.57905 10.5798 4.55464 10.5523C4.53024 10.5248 4.49989 10.5028 4.46571 10.4876C4.43153 10.4725 4.39432 10.4647 4.35667 10.4647C4.31901 10.4647 4.28181 10.4725 4.24762 10.4876C4.21344 10.5028 4.1831 10.5248 4.15869 10.5523C4.13428 10.5798 4.11639 10.612 4.10626 10.6468C4.09613 10.6815 4.09399 10.718 4.1 10.7536C4.09911 10.786 4.105 10.8183 4.11734 10.8485C4.12967 10.8787 4.14819 10.9062 4.1718 10.9294C4.19541 10.9526 4.22364 10.9711 4.25482 10.9837C4.286 10.9963 4.3195 11.0028 4.35333 11.0028Z" fill="black"/>
</g>
<defs>
<clipPath id="clip0_130_4956">
<rect width="16" height="15.3333" fill="white" transform="translate(0 0.333313)"/>
</clipPath>
</defs>
</svg>
