<svg width="16" height="16" viewBox="0 0 16 16" fill="none" xmlns="http://www.w3.org/2000/svg">
<g clip-path="url(#clip0_130_4953)">
<path d="M13.9 0.972195C13.5686 0.918356 13.2285 0.992243 12.9538 1.17775C12.679 1.36325 12.492 1.64533 12.4333 1.96247L12.3067 2.60136L11.76 2.49914L11.6333 3.13803L12.18 3.24025L11.48 6.69025L10.8133 3.24025L11.3333 3.11886L11.2067 2.47997L10.6667 2.61414L10.54 1.97525C10.5099 1.65246 10.3473 1.35433 10.0879 1.14645C9.82846 0.938575 9.49349 0.837973 9.15667 0.866778C8.81984 0.895584 8.50875 1.05144 8.29184 1.30005C8.07492 1.54867 7.96994 1.86968 8 2.19247C7.99341 2.26261 7.99341 2.33317 8 2.40331L8.16667 3.34886C8.22536 3.66639 8.41217 3.949 8.68666 4.13553C8.96114 4.32206 9.30124 4.3975 9.63333 4.34553C9.71385 4.33081 9.79664 4.3317 9.87679 4.34816C9.95695 4.36462 10.0328 4.39631 10.1 4.44136C10.2319 4.5367 10.3222 4.67558 10.3533 4.83108L10.8467 8.05747L9.46 15.0278L9.66667 15.0597C9.94667 15.1044 10.0533 14.7914 10.1333 14.5358L10.18 14.408L11.4667 10.1403L12.7667 14.3889C12.7853 14.4303 12.8009 14.473 12.8133 14.5166C12.9 14.7722 13.0067 15.0853 13.2867 15.0405L13.4933 15.0086L12.0933 8.06386L12.5867 4.86942C12.6178 4.71391 12.7081 4.57503 12.84 4.47969C12.9065 4.4234 12.9854 4.38212 13.0708 4.3589C13.1561 4.33568 13.2459 4.33111 13.3333 4.34553C13.6662 4.39762 14.0071 4.32237 14.2827 4.13596C14.5583 3.94955 14.7464 3.6669 14.8067 3.34886L14.9733 2.40331C14.9799 2.33317 14.9799 2.26261 14.9733 2.19247C14.9799 1.89876 14.8746 1.6128 14.677 1.38817C14.4794 1.16354 14.2032 1.01565 13.9 0.972195ZM9.47333 3.86636C9.38307 3.88255 9.29028 3.88069 9.2008 3.8609C9.11132 3.84111 9.02707 3.80382 8.95333 3.75136C8.87676 3.70192 8.81174 3.63777 8.7624 3.56299C8.71305 3.4882 8.68045 3.40441 8.66667 3.31692L8.47333 2.24997C8.46984 2.20958 8.46984 2.16898 8.47333 2.12858C8.47195 1.97259 8.53017 1.82151 8.63701 1.70382C8.74386 1.58613 8.89194 1.50997 9.05333 1.4897C9.14463 1.47259 9.23866 1.47398 9.32936 1.49379C9.42007 1.51359 9.50544 1.55137 9.58 1.6047C9.65657 1.65414 9.72159 1.71829 9.77093 1.79307C9.82028 1.86786 9.85288 1.95165 9.86667 2.03914L10.06 3.11247C10.0633 3.16353 10.0633 3.21474 10.06 3.26581C10.0517 3.41609 9.98828 3.55875 9.88095 3.66861C9.77362 3.77848 9.62927 3.84851 9.47333 3.86636ZM14.4867 2.24997L14.2933 3.31692C14.2795 3.40441 14.2469 3.4882 14.1976 3.56299C14.1483 3.63777 14.0832 3.70192 14.0067 3.75136C13.9321 3.80468 13.8467 3.84246 13.756 3.86227C13.6653 3.88208 13.5713 3.88347 13.48 3.86636C13.3976 3.86149 13.3171 3.84107 13.243 3.80629C13.1689 3.77151 13.1027 3.72305 13.0482 3.66369C12.9937 3.60433 12.952 3.53524 12.9254 3.46038C12.8988 3.38552 12.8879 3.30637 12.8933 3.22747C12.89 3.17641 12.89 3.1252 12.8933 3.07414L13.0867 2.00081C13.1294 1.8382 13.2372 1.69823 13.3867 1.61108C13.4604 1.55863 13.5447 1.52133 13.6341 1.50154C13.7236 1.48176 13.8164 1.4799 13.9067 1.49608C14.0693 1.51492 14.219 1.59045 14.3272 1.70829C14.4354 1.82613 14.4945 1.97801 14.4933 2.13497C14.4943 2.17341 14.492 2.21187 14.4867 2.24997Z" fill="#BFB1AC" stroke="#BFB1AC" stroke-width="0.7" stroke-miterlimit="10"/>
<path d="M11.48 8.7986C11.6126 8.7986 11.7398 8.74812 11.8336 8.65826C11.9273 8.5684 11.98 8.44652 11.98 8.31944C11.98 8.19235 11.9273 8.07048 11.8336 7.98062C11.7398 7.89075 11.6126 7.84027 11.48 7.84027C11.3474 7.84027 11.2202 7.89075 11.1264 7.98062C11.0327 8.07048 10.98 8.19235 10.98 8.31944C10.98 8.44652 11.0327 8.5684 11.1264 8.65826C11.2202 8.74812 11.3474 8.7986 11.48 8.7986Z" fill="#595857"/>
<path d="M3.33333 11.8333V14.9575L4 15.6666V11.8333H3.33333Z" fill="#A0ACB6"/>
<path d="M4.66667 1.61108H2.66667V4.80553H4.66667V1.61108Z" fill="#D4CAC8"/>
<path d="M4.66667 6.72223H2.66667C2.29848 6.72223 2 7.00827 2 7.36112V11.1945C2 11.5473 2.29848 11.8333 2.66667 11.8333H4.66667C5.03486 11.8333 5.33333 11.5473 5.33333 11.1945V7.36112C5.33333 7.00827 5.03486 6.72223 4.66667 6.72223Z" fill="#31B7BC"/>
<path d="M5.33333 5.4444H2V7.36106H5.33333V5.4444Z" fill="#D4CAC8"/>
<path d="M2 6.72223V7.36112H5.33333V6.72223H2Z" fill="#4D4D4D"/>
<path d="M6.0007 0.972551L1.33403 0.977234L1.33473 1.61612L6.00139 1.61144L6.0007 0.972551Z" fill="#8B7E79"/>
<path d="M0.666667 4.80554V5.44443H6.66667V4.80554H0.666667Z" fill="#BFB1AC"/>
<path d="M2.66667 11.8333V12.4722H4.66667V11.8333H2.66667Z" fill="#595857"/>
</g>
<defs>
<clipPath id="clip0_130_4953">
<rect width="16" height="15.3333" fill="white" transform="translate(0 0.333313)"/>
</clipPath>
</defs>
</svg>
