<svg width="24" height="24" viewBox="0 0 24 24" fill="none" xmlns="http://www.w3.org/2000/svg">
<g clip-path="url(#clip0_289_18440)">
<path d="M17.25 0.950405C16.9775 0.900399 16.6974 0.902395 16.4256 0.956278C16.1539 1.01016 15.896 1.11487 15.6665 1.26442C15.4371 1.41397 15.2407 1.60542 15.0886 1.8278C14.9365 2.05018 14.8316 2.29913 14.78 2.56041L14.52 3.57624L13.36 3.3079L13.1 4.33332L14.31 4.61124L12 13.8017L9.68001 4.62082L10.9 4.33332L10.64 3.29832L9.48001 3.56665L9.22001 2.56041C9.16299 2.02412 8.886 1.5315 8.44997 1.19092C8.01395 0.850351 7.45461 0.689718 6.89501 0.744363C6.3354 0.799009 5.82137 1.06446 5.46598 1.48231C5.1106 1.90017 4.94299 2.4362 5.00001 2.97249C4.99017 3.0873 4.99017 3.20268 5.00001 3.31749L5.31001 4.87957C5.36178 5.14088 5.4671 5.38976 5.61986 5.61183C5.77263 5.83389 5.96981 6.02474 6.20001 6.17332C6.42784 6.32476 6.6851 6.43079 6.95652 6.48511C7.22793 6.53944 7.50797 6.54095 7.78001 6.48957C7.91366 6.4604 8.05214 6.45787 8.18685 6.48214C8.32156 6.5064 8.44963 6.55696 8.5631 6.63065C8.67657 6.70434 8.77302 6.7996 8.84646 6.91052C8.9199 7.02143 8.96876 7.14563 8.99001 7.27541C8.99001 7.27541 10.12 11.9042 11.33 16.1592L9.68001 23.0112L10.02 23.0879C10.45 22.8867 11.21 20.7879 12.02 18.1717C12.81 20.7879 13.57 22.8867 14.02 23.0879L14.36 23.0112L12.63 16.1592C13.85 11.9042 14.98 7.27541 14.98 7.27541C15.0045 7.14679 15.0561 7.02433 15.1318 6.91556C15.2074 6.80678 15.3055 6.714 15.42 6.6429C15.5309 6.5688 15.6563 6.51701 15.7886 6.49065C15.921 6.4643 16.0575 6.46393 16.19 6.48957C16.462 6.54095 16.7421 6.53944 17.0135 6.48511C17.2849 6.43079 17.5422 6.32476 17.77 6.17332C18.0002 6.02474 18.1974 5.83389 18.3502 5.61183C18.5029 5.38976 18.6082 5.14088 18.66 4.87957L18.97 3.31749C18.97 3.20249 18.97 3.08749 18.97 2.97249C18.9786 2.49508 18.8106 2.03017 18.4958 1.66008C18.181 1.28998 17.7397 1.03859 17.25 0.950405V0.950405ZM7.54001 5.74207C7.39041 5.77228 7.23592 5.77256 7.08621 5.74287C6.9365 5.71319 6.79481 5.65419 6.67001 5.56957C6.41651 5.40157 6.23807 5.14848 6.17001 4.86041L5.82001 3.03957C5.81458 2.97899 5.81458 2.91807 5.82001 2.85749C5.81701 2.5863 5.91667 2.32326 6.10054 2.1171C6.28441 1.91094 6.54001 1.77563 6.82001 1.73624C6.96966 1.70717 7.12391 1.70746 7.27344 1.73711C7.42297 1.76676 7.56468 1.82514 7.69001 1.90874C7.81695 1.99182 7.92556 2.09806 8.00964 2.22139C8.09371 2.34471 8.15161 2.48271 8.18001 2.62749L8.53001 4.40041C8.53927 4.48322 8.53927 4.56675 8.53001 4.64957C8.54394 4.78243 8.52875 4.91662 8.48541 5.04352C8.44207 5.17043 8.37153 5.28726 8.27832 5.38651C8.1851 5.48576 8.07128 5.56525 7.94414 5.61988C7.81699 5.67451 7.67934 5.70307 7.54001 5.70374V5.74207ZM18.18 3.03957L17.82 4.82207C17.7602 5.11096 17.5842 5.3657 17.33 5.53124C17.2047 5.61483 17.063 5.67322 16.9134 5.70286C16.7639 5.73251 16.6097 5.73281 16.46 5.70374C16.3198 5.70441 16.1811 5.67683 16.0527 5.6228C15.9244 5.56876 15.8093 5.48946 15.7151 5.39006C15.6208 5.29066 15.5493 5.17337 15.5054 5.0458C15.4614 4.91823 15.446 4.78324 15.46 4.64957C15.4504 4.56677 15.4504 4.48321 15.46 4.40041L15.82 2.62749C15.8484 2.48271 15.9063 2.34471 15.9904 2.22139C16.0745 2.09806 16.1831 1.99182 16.31 1.90874C16.4351 1.82464 16.5768 1.76595 16.7264 1.73628C16.876 1.70662 17.0304 1.7066 17.18 1.73624C17.4508 1.78589 17.6947 1.92561 17.8685 2.13075C18.0423 2.33589 18.1349 2.59328 18.13 2.85749C18.1523 2.91665 18.169 2.97758 18.18 3.03957V3.03957Z" fill="#BFB1AC" stroke="#BFB1AC" stroke-width="0.75" stroke-miterlimit="10"/>
<path d="M12 15.8335C12.0969 15.8335 12.1917 15.8059 12.2722 15.7543C12.3528 15.7027 12.4156 15.6294 12.4527 15.5436C12.4898 15.4578 12.4995 15.3633 12.4806 15.2723C12.4617 15.1812 12.415 15.0975 12.3465 15.0318C12.278 14.9662 12.1907 14.9214 12.0956 14.9033C12.0006 14.8852 11.902 14.8945 11.8125 14.93C11.723 14.9656 11.6464 15.0258 11.5926 15.103C11.5387 15.1802 11.51 15.271 11.51 15.3639C11.51 15.4884 11.5616 15.6079 11.6535 15.6959C11.7454 15.784 11.8701 15.8335 12 15.8335V15.8335Z" fill="black"/>
<path d="M24 17.3762V15.3541H21.84L22.11 12.9583H20L19.72 15.3541H18L18.28 12.9583H16.11L15.83 15.3541H13.56V17.3762H15.56L15.36 19.082H13V21.1041H15.16L14.89 23.4999H17L17.28 21.1041H19.05L18.77 23.4999H20.89L21.17 21.1041H23.44V19.082H21.44L21.64 17.3762H24ZM19.48 17.3762L19.29 19.082H17.52L17.71 17.3762H19.48Z" fill="#F8B55C"/>
</g>
<defs>
<clipPath id="clip0_289_18440">
<rect width="24" height="23" fill="white" transform="translate(0 0.5)"/>
</clipPath>
</defs>
</svg>
