<svg width="43" height="72" viewBox="0 0 43 72" fill="none" xmlns="http://www.w3.org/2000/svg">
<path d="M37.25 1.40997C36.4324 1.25343 35.592 1.25968 34.7769 1.42836C33.9617 1.59704 33.1878 1.92484 32.4996 2.39298C31.8113 2.86113 31.2221 3.46044 30.7657 4.1566C30.3093 4.85275 29.9947 5.63208 29.84 6.44998L29.06 9.62997L25.58 8.78998L24.8 12L28.43 12.87L21.5 41.64L14.54 12.9L18.2 12L17.42 8.75997L13.94 9.59997L13.16 6.44998C12.9889 4.77115 12.1579 3.22905 10.8499 2.1629C9.5418 1.09676 7.86378 0.59391 6.18496 0.764974C4.50614 0.936039 2.96403 1.76701 1.89789 3.07507C0.831746 4.38314 0.328895 6.06115 0.49996 7.73997C0.470456 8.09937 0.470456 8.46058 0.49996 8.81997L1.42996 13.71C1.58529 14.528 1.90124 15.3071 2.35953 16.0023C2.81782 16.6974 3.40936 17.2948 4.09996 17.76C4.78347 18.234 5.55525 18.566 6.36949 18.736C7.18373 18.9061 8.02385 18.9108 8.83996 18.75C9.2409 18.6586 9.65634 18.6507 10.0605 18.7267C10.4646 18.8027 10.8488 18.9609 11.1892 19.1916C11.5296 19.4223 11.819 19.7205 12.0393 20.0677C12.2596 20.4149 12.4062 20.8037 12.47 21.21C12.47 21.21 15.86 35.7 19.49 49.02L14.54 70.47L15.56 70.71C16.85 70.08 19.13 63.51 21.56 55.32C23.93 63.51 26.21 70.08 27.56 70.71L28.58 70.47L23.39 49.02C27.05 35.7 30.44 21.21 30.44 21.21C30.5133 20.8074 30.6682 20.424 30.8952 20.0835C31.1222 19.743 31.4165 19.4525 31.76 19.23C32.0926 18.998 32.4688 18.8359 32.8658 18.7534C33.2628 18.6709 33.6725 18.6697 34.07 18.75C34.8861 18.9108 35.7262 18.9061 36.5404 18.736C37.3547 18.566 38.1265 18.234 38.81 17.76C39.5006 17.2948 40.0921 16.6974 40.5504 16.0023C41.0087 15.3071 41.3246 14.528 41.48 13.71L42.41 8.81997C42.41 8.45997 42.41 8.09997 42.41 7.73997C42.4357 6.24549 41.9317 4.79011 40.9873 3.63156C40.0429 2.47301 38.719 1.68603 37.25 1.40997ZM8.11996 16.41C7.67118 16.5046 7.2077 16.5054 6.75858 16.4125C6.30945 16.3196 5.88437 16.1349 5.50996 15.87C4.74948 15.344 4.21416 14.5518 4.00996 13.65L2.95996 7.94998C2.94367 7.76032 2.94367 7.56963 2.95996 7.37997C2.95096 6.53104 3.24995 5.70761 3.80155 5.06224C4.35316 4.41686 5.11998 3.99328 5.95996 3.86997C6.40892 3.77897 6.87167 3.7799 7.32026 3.87271C7.76884 3.96552 8.19397 4.14829 8.56996 4.40997C8.95078 4.67006 9.27661 5.00264 9.52884 5.3887C9.78107 5.77477 9.95476 6.20676 10.04 6.65998L11.09 12.21C11.1177 12.4692 11.1177 12.7307 11.09 12.99C11.1318 13.4059 11.0862 13.8259 10.9562 14.2232C10.8261 14.6205 10.6145 14.9862 10.3349 15.2969C10.0553 15.6076 9.71377 15.8564 9.33235 16.0275C8.95092 16.1985 8.53796 16.2879 8.11996 16.29V16.41ZM40.04 7.94998L38.96 13.53C38.7805 14.4343 38.2525 15.2318 37.49 15.75C37.114 16.0117 36.6888 16.1944 36.2403 16.2872C35.7917 16.38 35.3289 16.381 34.88 16.29C34.4594 16.2921 34.0432 16.2058 33.6581 16.0366C33.2731 15.8674 32.928 15.6192 32.6451 15.308C32.3622 14.9969 32.1479 14.6297 32.0161 14.2303C31.8843 13.831 31.8379 13.4084 31.88 12.99C31.8512 12.7308 31.8512 12.4692 31.88 12.21L32.96 6.65998C33.0452 6.20676 33.2188 5.77477 33.4711 5.3887C33.7233 5.00264 34.0491 4.67006 34.43 4.40997C34.8052 4.1467 35.2303 3.96298 35.6791 3.87011C36.128 3.77725 36.5911 3.7772 37.04 3.86997C37.8525 4.02539 38.584 4.46278 39.1054 5.10497C39.6268 5.74716 39.9047 6.55288 39.89 7.37997C39.9567 7.56517 40.0069 7.75591 40.04 7.94998Z" fill="#BFB1AC" stroke="#BFB1AC" stroke-width="0.75" stroke-miterlimit="10"/>
</svg>
