<svg width="124" height="125" viewBox="0 0 124 125" fill="none" xmlns="http://www.w3.org/2000/svg">
<path fill-rule="evenodd" clip-rule="evenodd" d="M0 78L31 109H93L124 78L62 16L0 78Z" fill="#8ACED1"/>
<path fill-rule="evenodd" clip-rule="evenodd" d="M25.833 88.333H98.1664V57.333H25.833V88.333Z" fill="white"/>
<path fill-rule="evenodd" clip-rule="evenodd" d="M25.833 72.8332H98.1612V67.6665H25.833V72.8332Z" fill="#8B7E79"/>
<path fill-rule="evenodd" clip-rule="evenodd" d="M25.833 83.1667H98.1612V78H25.833V83.1667Z" fill="#8B7E79"/>
<path fill-rule="evenodd" clip-rule="evenodd" d="M36.167 88.333H41.3337V62.5049H36.167V88.333Z" fill="#8B7E79"/>
<path fill-rule="evenodd" clip-rule="evenodd" d="M51.667 88.333H56.8337V62.5049H51.667V88.333Z" fill="#8B7E79"/>
<path fill-rule="evenodd" clip-rule="evenodd" d="M67.167 88.333H72.3388V62.5049H67.167V88.333Z" fill="#8B7E79"/>
<path fill-rule="evenodd" clip-rule="evenodd" d="M82.667 88.333H87.8336V62.5049H82.667V88.333Z" fill="#8B7E79"/>
<path fill-rule="evenodd" clip-rule="evenodd" d="M25.833 62.499H98.1612V57.3271H25.833V62.499Z" fill="#4D4D4D"/>
<path fill-rule="evenodd" clip-rule="evenodd" d="M31 109L62 78L93 109H31Z" fill="#748391"/>
</svg>
