<svg width="124" height="125" viewBox="0 0 124 125" fill="none" xmlns="http://www.w3.org/2000/svg">
<path fill-rule="evenodd" clip-rule="evenodd" d="M2.69824 103.332V18.2424L20.7706 6.19775H97.9489L116.021 18.2424V103.332H2.69824Z" fill="#8ACED1"/>
<path fill-rule="evenodd" clip-rule="evenodd" d="M97.134 3.5H21.5853H19.9502L18.5904 4.40658L2.40137 15.1993L0 16.802V19.689V100.634V106.03H5.39633H113.323H118.719V100.634V19.689V16.802L116.318 15.1993L100.124 4.40658L98.7637 3.5H97.134ZM5.39579 19.6894L21.5848 8.89672H97.1335L113.322 19.6894V100.634H5.39579V19.6894Z" fill="#8ACED1"/>
<path fill-rule="evenodd" clip-rule="evenodd" d="M32.376 62.8586H43.1686V35.877H32.376V62.8586Z" fill="white"/>
<path fill-rule="evenodd" clip-rule="evenodd" d="M75.5459 62.8586H86.3386V35.877H75.5459V62.8586Z" fill="white"/>
<path fill-rule="evenodd" clip-rule="evenodd" d="M10.7918 19.6895H5.39551L21.5845 79.0491H97.1332L113.322 19.6895H107.926L91.7369 73.6528H26.9808L10.7918 19.6895Z" fill="#C2E4E5"/>
<path fill-rule="evenodd" clip-rule="evenodd" d="M5.39551 19.6892L21.5845 8.89648H97.1332L113.322 19.6892H5.39551Z" fill="#C2E4E5"/>
<path fill-rule="evenodd" clip-rule="evenodd" d="M13.4883 97.9342H105.226V65.5562H13.4883V97.9342Z" fill="#231F20"/>
<path fill-rule="evenodd" clip-rule="evenodd" d="M107.927 62.8599H102.531H91.738H86.3416H75.549H70.1526H64.7563H59.36H53.9636H48.5673H37.7746H32.3783H26.982H21.5856H16.1893H10.793V68.2562V95.2379V100.634H16.1893H21.5856H26.982H32.3783H37.7746H48.5673H53.9636H59.36H64.7563H70.1526H75.549H86.3416H91.738H102.531H107.927V95.2379V68.2562V62.8599ZM16.1892 95.2376H21.5856V68.256H16.1892V95.2376ZM26.9817 95.2376H32.3781V68.256H26.9817V95.2376ZM37.7742 95.2376H48.5669V68.256H37.7742V95.2376ZM53.9634 95.2376H59.3598V68.256H53.9634V95.2376ZM64.756 95.2376H70.1523V68.256H64.756V95.2376ZM75.5494 95.2376H86.3421V68.256H75.5494V95.2376ZM91.7377 95.2376H102.53V68.256H91.7377V95.2376Z" fill="white"/>
<mask id="mask0_1038_16660" style="mask-type:alpha" maskUnits="userSpaceOnUse" x="70" y="56" width="54" height="66">
<path fill-rule="evenodd" clip-rule="evenodd" d="M70.0361 56.1802H123.999V121.484H70.0361V56.1802Z" fill="white"/>
</mask>
<g mask="url(#mask0_1038_16660)">
<path fill-rule="evenodd" clip-rule="evenodd" d="M123.999 95.5195C123.999 109.836 111.793 121.487 96.7966 121.487H86.2305V107.321H96.7966C103.618 107.321 109.165 102.027 109.165 95.5195C109.165 89.0115 103.618 83.0971 96.7966 83.0971H95.6741V96.6959L70.0361 76.438L95.6741 56.1802V69.5523H96.7966C111.793 69.5523 123.999 81.203 123.999 95.5195Z" fill="#E94F35"/>
</g>
</svg>
