<svg id="Layer_1" data-name="Layer 1" xmlns="http://www.w3.org/2000/svg" xmlns:xlink="http://www.w3.org/1999/xlink" viewBox="0 0 24 24"><defs><style>.cls-1,.cls-2,.cls-3{fill:none;}.cls-1{clip-rule:evenodd;}.cls-3{fill-rule:evenodd;}.cls-4{clip-path:url(#clip-path);}.cls-5{clip-path:url(#clip-path-2);}.cls-6{clip-path:url(#clip-path-3);}.cls-7{clip-path:url(#clip-path-5);}.cls-8{clip-path:url(#clip-path-6);}.cls-9{fill:#8aced1;}.cls-10{fill:#c2e4e5;}.cls-11{fill:#fff;}.cls-12{fill:#fed6a5;}.cls-13{clip-path:url(#clip-path-7);}.cls-14{fill:#f8b55c;}.cls-15{fill:#b7cc8b;}</style><clipPath id="clip-path"><path class="cls-1" d="M-172.59-319a11,11,0,0,1-11-11,11,11,0,0,1,11-11,11,11,0,0,1,11,11,11,11,0,0,1-11,11"/></clipPath><clipPath id="clip-path-2"><path class="cls-1" d="M-170.29-336v3.09a4.09,4.09,0,0,1,1.67,3.29,4.13,4.13,0,0,1-4.12,4.12,4.12,4.12,0,0,1-4.11-4.12,4.09,4.09,0,0,1,1.67-3.29V-336a6.83,6.83,0,0,0-4.41,6.38,6.86,6.86,0,0,0,6.85,6.86,6.86,6.86,0,0,0,6.86-6.86,6.83,6.83,0,0,0-4.41-6.38"/></clipPath><clipPath id="clip-path-3"><path class="cls-1" d="M-162.08-329.48a5.05,5.05,0,0,0-3.59-1.49,5.06,5.06,0,0,0-3.6,1.49,5,5,0,0,0-1.42,2.76h-2.9l3.83,4.92,3.84-4.92h-2.69a3,3,0,0,1,.78-1.32,3,3,0,0,1,2.16-.9,3,3,0,0,1,2.15.9,3,3,0,0,1,.89,2.15,3,3,0,0,1-3,3.05v2a5.09,5.09,0,0,0,5.08-5.08A5.05,5.05,0,0,0-162.08-329.48Z"/></clipPath><clipPath id="clip-path-5"><path class="cls-1" d="M-171.53-296.5l3.51.94.5,2.31a10,10,0,0,1,1.08.84l2.38-.12,1.81,3.16-1.29,2a8.77,8.77,0,0,1,.19,1.35l1.76,1.6-.95,3.51-2.31.5a8.69,8.69,0,0,1-.84,1.08l.12,2.37-3.15,1.82-2-1.29a10.35,10.35,0,0,1-1.36.19l-1.59,1.75-3.51-.94-.5-2.31a10,10,0,0,1-1.08-.84l-2.38.12-1.81-3.16,1.29-2a8.77,8.77,0,0,1-.19-1.35l-1.75-1.6.94-3.51,2.31-.5a11.13,11.13,0,0,1,.84-1.08l-.12-2.37,3.15-1.82,2,1.29a10,10,0,0,1,1.35-.19l1.59-1.75"/></clipPath><clipPath id="clip-path-6"><path class="cls-1" d="M-172.59-280.95a4.55,4.55,0,0,0,4.4-3.37,4.56,4.56,0,0,0-3.22-5.58,4.91,4.91,0,0,0-1.19-.15,4.55,4.55,0,0,0-4.4,3.37,4.56,4.56,0,0,0,3.23,5.58,4.34,4.34,0,0,0,1.18.15"/></clipPath><clipPath id="clip-path-7"><path class="cls-2" d="M22.29,22.56a10.7,10.7,0,0,1-3.31.56c-1.8,0-7.17-.49-10.74-2.45-.34-.18.12-1.1.83-1a33,33,0,0,0,4,.49c.79-.06,5.06,0,5.06,0l4.38.09Z"/></clipPath></defs><rect class="cls-2" width="24" height="24"/><polygon class="cls-9" points="2.5 17.5 2.5 3.73 5 1.5 18 1.5 20.5 3.73 20.5 17.5 2.5 17.5"/><path class="cls-9" d="M17.81,2,20,4V17H3V4L5.19,2H17.81m.38-1H4.81l-.29.25-2.19,2L2,3.51V18H21V3.51l-.33-.3-2.19-2L18.19,1Z"/><path class="cls-10" d="M13.77,10.52l5,6.48H4.26l5-6.48h4.55m.5-1H8.73L3,17H20L14.27,9.52Z"/><polygon class="cls-9" points="3 3.96 5.73 12.64 17.27 12.64 20 3.96 3 3.96"/><path class="cls-10" d="M19,4l-2.48,7.68h-10L4,4H19m1,0H3l2.73,8.68H17.27L20,4Z"/><rect class="cls-11" x="8" y="7" width="2" height="9"/><rect class="cls-11" x="13" y="7" width="2" height="9"/><rect class="cls-10" x="8" y="10" width="2" height="1"/><rect class="cls-10" x="13" y="10" width="2" height="1"/><polygon class="cls-10" points="3 3.96 5.19 2 17.81 2 20 3.96 3 3.96"/><path class="cls-12" d="M22.29,22.56a10.7,10.7,0,0,1-3.31.56c-1.8,0-7.17-.49-10.74-2.45-.34-.18.12-1.1.83-1a33,33,0,0,0,4,.49c.79-.06,5.06,0,5.06,0l4.38.09Z"/><g class="cls-13"><path class="cls-14" d="M19.41,19.47l.35,0a2.4,2.4,0,0,1,2,1.27l.14.27v1.88a9,9,0,0,1-2,.22l-.6,0h0a17.13,17.13,0,0,1-2.44.32h-.09c-1.36,0-4.25-.34-4.25-.34s-.77,0-.4-.79c.46-.94,2.13-.88,2.7-.89a6.31,6.31,0,0,0,2.15-.88,4.36,4.36,0,0,1,2.49-1.05m0-1h0a4.47,4.47,0,0,0-2.75,1l-.24.16a6,6,0,0,1-1.67.74h-.13c-.82,0-2.75,0-3.45,1.45a1.54,1.54,0,0,0,0,1.52,1.56,1.56,0,0,0,1.22.71c.33,0,3,.34,4.34.34h.1A12,12,0,0,0,19,24.16l.28-.05.62,0a9.94,9.94,0,0,0,2.22-.25l.76-.19v-2.9l-.11-.22-.13-.24a3.43,3.43,0,0,0-2.74-1.83l-.47,0Z"/></g><path class="cls-12" d="M1.41,2.71l6.13-.55a7.69,7.69,0,0,1,2.14.43,28.9,28.9,0,0,1,4.4,4.49s.46.59.19.78a.7.7,0,0,1-.63.16,2.88,2.88,0,0,1-1.48-.94c-.35-.43-2.4-2.61-2.4-2.61l3.56,4.26s.7.83.22,1.08a1.4,1.4,0,0,1-1.38-.27c-.19-.22-1.72-2-3.39-4l3,3.88s.41.76-.13,1S10.4,10,10.4,10L7.7,6.89l2.24,3.19a.55.55,0,0,1-.27.7c-.46.22-.62.05-1.13-.43S6.49,8,5.86,8A9.23,9.23,0,0,1,.61,6.52Z"/><path class="cls-15" d="M0,2H2V8H0Z"/><path class="cls-12" d="M19.28,23.11a20.45,20.45,0,0,1-2.47.31c-1.31,0-4.34-.34-4.34-.34s-.77,0-.4-.79c.46-.94,2.13-.88,2.7-.89a6.31,6.31,0,0,0,2.15-.88,4.07,4.07,0,0,1,2.84-1A7.2,7.2,0,0,1,22,20V23A12,12,0,0,1,19.28,23.11Z"/><rect class="cls-15" x="22" y="19" width="2" height="5"/></svg>