<svg id="Layer_1" data-name="Layer 1" xmlns="http://www.w3.org/2000/svg" viewBox="0 0 24 24"><defs><style>.cls-1{fill:none;}.cls-2{fill:#8aced1;}.cls-3{fill:#fff;}.cls-4{fill:#c2e4e5;}.cls-5{fill:#231f20;}</style></defs><rect class="cls-1" width="24" height="24"/><polygon class="cls-2" points="1.52 20.64 1.52 4.87 4.87 2.64 19.17 2.64 22.52 4.87 22.52 20.64 1.52 20.64"/><path class="cls-2" d="M19,3.14l3,2v15H2v-15l3-2H19m.3-1H4.72l-.25.16-3,2L1,4.6V21.14H23V4.6l-.44-.3-3-2-.26-.16Z"/><rect class="cls-3" x="7.02" y="8.14" width="2" height="5"/><rect class="cls-3" x="15.02" y="8.14" width="2" height="5"/><polygon class="cls-4" points="3.02 5.14 2.02 5.14 5.02 16.14 19.02 16.14 22.02 5.14 21.02 5.14 18.02 15.14 6.02 15.14 3.02 5.14"/><polygon class="cls-4" points="2.02 5.14 5.02 3.14 19.02 3.14 22.02 5.14 2.02 5.14"/><rect class="cls-5" x="3.52" y="13.64" width="17" height="6"/><path class="cls-3" d="M20,14.14v5H18v-5h2m-3,0v5H15v-5h2m-3,0v5H13v-5h1m-2,0v5H11v-5h1m-2,0v5H8v-5h2m-3,0v5H6v-5H7m-2,0v5H4v-5H5m16-1H3v7H21v-7Z"/></svg>