<svg width="124" height="125" viewBox="0 0 124 125" fill="none" xmlns="http://www.w3.org/2000/svg">
<path fill-rule="evenodd" clip-rule="evenodd" d="M25.8261 3.08594L12.9199 14.6385V85.7518H105.919V14.6385L93.0076 3.08594H25.8261Z" fill="#8ACED1"/>
<path fill-rule="evenodd" clip-rule="evenodd" d="M24.8428 0.5L23.3703 1.81749L12.0554 11.9389L10.335 13.4785V15.788V83.1658V88.3324H15.5016H103.334H108.501V83.1658V15.788V13.4785L106.78 11.9389L95.4704 1.81749L93.998 0.5H24.8428ZM15.501 15.7882L26.8159 5.6668H92.0186L103.333 15.7882V83.166H15.501V15.7882Z" fill="#8ACED1"/>
<path fill-rule="evenodd" clip-rule="evenodd" d="M73.7155 44.5186H45.1182L15.498 83.1648H103.33L73.7155 44.5186ZM71.1614 49.6848L96.824 83.1645H22.0062L47.6585 49.6848H71.1614Z" fill="#C2E4E5"/>
<path fill-rule="evenodd" clip-rule="evenodd" d="M15.501 15.7891L29.6162 60.6559H89.2182L103.333 15.7891H15.501Z" fill="#8ACED1"/>
<path fill-rule="evenodd" clip-rule="evenodd" d="M103.333 15.7874H15.501L29.6162 60.6543H89.2182L103.333 15.7874ZM98.0081 15.7871L85.2104 55.4874H33.6321L20.8344 15.7871H98.0081Z" fill="#C2E4E5"/>
<path fill-rule="evenodd" clip-rule="evenodd" d="M41.334 78.0005H51.6672V31.501H41.334V78.0005Z" fill="white"/>
<path fill-rule="evenodd" clip-rule="evenodd" d="M67.167 78.0005H77.5002V31.501H67.167V78.0005Z" fill="white"/>
<path fill-rule="evenodd" clip-rule="evenodd" d="M41.334 52.1676H51.6672V47.001H41.334V52.1676Z" fill="#C2E4E5"/>
<path fill-rule="evenodd" clip-rule="evenodd" d="M67.167 52.1676H77.5054V47.001H67.167V52.1676Z" fill="#C2E4E5"/>
<path fill-rule="evenodd" clip-rule="evenodd" d="M15.501 15.7894L26.8107 5.66797H92.0237L103.333 15.7894H15.501Z" fill="#C2E4E5"/>
<path fill-rule="evenodd" clip-rule="evenodd" d="M23.251 80.5839H45.0024V54.7508H23.251V80.5839ZM47.7293 80.5836H56.8484V54.7505H47.7293V80.5836ZM58.002 80.5836H93.0885V54.7505H58.002V80.5836Z" fill="#231F20"/>
<path fill-rule="evenodd" clip-rule="evenodd" d="M95.6688 52.1675H90.5022H86.2862H81.1196H78.3916H73.225H72.0729H66.9062H60.5823H59.4301H54.2635H50.3162H47.5831H42.4165H37.3222H32.1556H25.8317H20.665V57.3341V78.0006V83.1672H25.8317H30.9363H36.1029H42.4165H45.1496H50.3162H54.2635H55.4157H60.5823H64.8964H70.063H72.791H77.9576H79.1098H84.2764H90.5022H95.6688V78.0006V57.3341V52.1675ZM25.8316 78.0005H32.1555V57.3341H25.8316V78.0005ZM36.0968 78.0005H42.4155V57.3341H36.0968V78.0005ZM50.3115 78.0005H54.2639V57.3341H50.3115V78.0005ZM60.5826 78.0005H66.9065V57.3341H60.5826V78.0005ZM70.0645 78.0005H73.2264V57.3341H70.0645V78.0005ZM77.963 78.0005H81.1198V57.3341H77.963V78.0005ZM84.2764 78.0005H90.5021V57.3341H84.2764V78.0005Z" fill="white"/>
<path fill-rule="evenodd" clip-rule="evenodd" d="M117.991 114.094C117.991 114.094 106.986 118.124 93.9922 118.124C81.0034 118.124 42.1504 114.626 16.3019 100.443C13.8994 99.1362 17.206 92.4765 22.3416 93.298C27.4669 94.1143 45.9272 97.2401 51.626 96.8371C57.3403 96.4238 88.2108 96.9249 88.2108 96.9249L119.898 97.5759L117.991 114.094Z" fill="#BFB1AC"/>
<path fill-rule="evenodd" clip-rule="evenodd" d="M89.8412 118.033C87.9502 117.893 81.4661 120.156 71.975 120.28C62.4891 120.394 40.5672 117.862 40.5672 117.862C40.5672 117.862 35.0028 117.656 37.7204 112.127C41.0529 105.328 53.1272 105.778 57.2709 105.695C61.43 105.612 69.3246 101.35 72.8017 99.3451C76.2685 97.3405 82.6183 90.691 93.3493 91.9103C104.08 93.1348 107.506 101.081 107.506 101.081L108.498 103.008V116.617C108.498 116.617 99.9213 118.777 89.8412 118.033Z" fill="#D4CAC8"/>
<mask id="mask0_1038_16583" style="mask-type:alpha" maskUnits="userSpaceOnUse" x="0" y="0" width="124" height="125">
<path fill-rule="evenodd" clip-rule="evenodd" d="M0.000976562 124.5H124V0.501465H0.000976562V124.5Z" fill="white"/>
</mask>
<g mask="url(#mask0_1038_16583)">
<path fill-rule="evenodd" clip-rule="evenodd" d="M103.333 124.5H123.999V88.334H103.333V124.5Z" fill="#B7CC8B"/>
</g>
</svg>
