<svg viewBox="0 0 24 24" xmlns="http://www.w3.org/2000/svg"><path d="m1.5 3.5h21v17h-21z" fill="#fff"/><path d="m22 4v16h-20v-16zm1-1h-22v18h22z" fill="#748391"/><path d="m0 0h24v24h-24z" fill="none"/><path d="m2 4h20v2h-20z" fill="#495a6b"/><path d="m2 4h2v1.99h-2z" fill="#a0acb6"/><path d="m20 4h2v1.99h-2z" fill="#a0acb6"/><g fill="#595857"><path d="m4.49 10.16v5.51h3.29v1.25h-4.78v-6.76z"/><path d="m8.55 12.16a3.27 3.27 0 0 1 .66-1.16 3.08 3.08 0 0 1 1-.76 3.76 3.76 0 0 1 2.8 0 3.08 3.08 0 0 1 1 .76 3.27 3.27 0 0 1 .66 1.13 4.34 4.34 0 0 1 .33 1.44 4.16 4.16 0 0 1 -.25 1.43 3.09 3.09 0 0 1 -.66 1.11 2.93 2.93 0 0 1 -1 .75 3.76 3.76 0 0 1 -2.8 0 2.93 2.93 0 0 1 -1-.75 3.09 3.09 0 0 1 -.74-1.11 4.16 4.16 0 0 1 -.22-1.38 4.34 4.34 0 0 1 .22-1.46zm1.36 2.24a2.14 2.14 0 0 0 .32.72 1.51 1.51 0 0 0 .57.52 1.91 1.91 0 0 0 1.7 0 1.51 1.51 0 0 0 .57-.52 2.14 2.14 0 0 0 .32-.72 3.85 3.85 0 0 0 .1-.83 4 4 0 0 0 -.1-.86 2.3 2.3 0 0 0 -.32-.75 1.59 1.59 0 0 0 -.57-.52 1.72 1.72 0 0 0 -.85-.19 1.72 1.72 0 0 0 -.85.19 1.59 1.59 0 0 0 -.57.52 2.3 2.3 0 0 0 -.32.75 3.49 3.49 0 0 0 -.1.86 3.31 3.31 0 0 0 .1.83z"/><path d="m15.46 11.41v-1.25h5.54v1.25h-2v5.51h-1.51v-5.51z"/></g></svg>