<svg id="Layer_1" data-name="Layer 1" xmlns="http://www.w3.org/2000/svg" xmlns:xlink="http://www.w3.org/1999/xlink" viewBox="0 0 24 24"><defs><style>.cls-1{fill:none;}.cls-2{fill:#8aced1;}.cls-3{fill:#fed6a5;}.cls-4{fill:#595857;}.cls-5{clip-path:url(#clip-path);}.cls-6{fill:#fff;}</style><clipPath id="clip-path"><path class="cls-1" d="M17.16,4.19S16.25,1.11,12,1.11,6.84,4.19,6.84,4.19a4.1,4.1,0,0,0-.91,4.48,6.15,6.15,0,0,0,.54,2.65v-.11c1,3.57,3.09,4.61,5.53,4.61s4.55-1,5.53-4.61v.11a6.15,6.15,0,0,0,.54-2.65A4.1,4.1,0,0,0,17.16,4.19ZM12,4.8h.24A.58.58,0,0,1,12,4.8Z"/></clipPath></defs><path class="cls-2" d="M23,22.89V20.05c0-5.66-11-6.14-11-6.14S1,14.39,1,20.05v2.84Z"/><path class="cls-3" d="M15.86,14.43S14.93,19,12,19s-3.9-4.55-3.9-4.55A17.58,17.58,0,0,1,12,14,14.57,14.57,0,0,1,15.86,14.43Z"/><path class="cls-3" d="M18.12,5.91c0,8-2.74,9.91-6.12,9.91s-6.12-2-6.12-9.91a3.94,3.94,0,0,0,1-.6C7.21,5,8.2,3.92,9.16,4.12a16.47,16.47,0,0,0,3.11.67c.23-.14,3-1.18,3.52-.69S18.12,5.91,18.12,5.91Z"/><path class="cls-4" d="M12,4.8c1.67,0,3.09-.53,3.89.56a9.81,9.81,0,0,1,1.64,5.81v.15a6.15,6.15,0,0,0,.54-2.65,4.1,4.1,0,0,0-.91-4.48S16.25,1.11,12,1.11,6.84,4.19,6.84,4.19a4.1,4.1,0,0,0-.91,4.48,6.15,6.15,0,0,0,.54,2.65v-.15A9.81,9.81,0,0,1,8.11,5.36C8.91,4.27,10.33,4.8,12,4.8Z"/><rect class="cls-1" width="24" height="24"/><g class="cls-5"><path class="cls-6" d="M8.07,8.68c-1.79,1-3.32,1.58-4.76,1.31l.74-3.94H4A14.67,14.67,0,0,0,7.72,4.3c1.2-.68,2.6-1.42,3.84-2.06C13,1.51,15,.51,15.27,0L19,1.42c-.66,1.84-2.74,2.9-5.62,4.38-1.2.61-2.55,1.34-3.71,2C9.12,8.1,8.58,8.41,8.07,8.68Z"/></g></svg>