<svg width="24" height="24" viewBox="0 0 24 24" fill="none" xmlns="http://www.w3.org/2000/svg">
<g clip-path="url(#clip0_289_18392)">
<path d="M23 3.48999H1C0.723858 3.48999 0.5 3.71385 0.5 3.98999V19.99C0.5 20.2661 0.723858 20.49 1 20.49H23C23.2761 20.49 23.5 20.2661 23.5 19.99V3.98999C23.5 3.71385 23.2761 3.48999 23 3.48999Z" fill="white"/>
<path d="M23 4V20H1V4H23ZM23 3H1C0.734784 3 0.48043 3.10536 0.292893 3.29289C0.105357 3.48043 0 3.73478 0 4L0 20C0 20.2652 0.105357 20.5196 0.292893 20.7071C0.48043 20.8946 0.734784 21 1 21H23C23.2652 21 23.5196 20.8946 23.7071 20.7071C23.8946 20.5196 24 20.2652 24 20V4C24 3.73478 23.8946 3.48043 23.7071 3.29289C23.5196 3.10536 23.2652 3 23 3V3Z" fill="#748391"/>
<path d="M4 18H3V6H4V18ZM7 6H5V18H7V6ZM11 6H10V18H11V6ZM9 6H8V18H9V6ZM17 6H14V18H17V6ZM21 6H20V18H21V6ZM19 6H18V18H19V6ZM13 6H12V18H13V6Z" fill="#231F20"/>
</g>
<defs>
<clipPath id="clip0_289_18392">
<rect width="24" height="24" fill="white"/>
</clipPath>
</defs>
</svg>
