<svg id="Layer_1" data-name="Layer 1" xmlns="http://www.w3.org/2000/svg" viewBox="0 0 24 24"><defs><style>.cls-1,.cls-8{fill:#fff;}.cls-2{fill:#748391;}.cls-3{fill:none;}.cls-4{fill:#8b7e79;}.cls-5{fill:#231f20;}.cls-6{fill:#bfb1ac;}.cls-7{fill:#595857;}.cls-8{stroke:gray;stroke-linejoin:round;}</style></defs><path class="cls-1" d="M6,11.5a.5.5,0,0,1-.5-.5V2A.5.5,0,0,1,6,1.5h8a.49.49,0,0,1,.36.15l4,4A.47.47,0,0,1,18.5,6v5a.5.5,0,0,1-.5.5Z"/><path class="cls-2" d="M14,2l4,4v5H6V2h8m0-1H6A1,1,0,0,0,5,2v9a1,1,0,0,0,1,1H18a1,1,0,0,0,1-1V6a1,1,0,0,0-.29-.71l-4-4A1,1,0,0,0,14,1Z"/><rect class="cls-1" x="5.5" y="15.5" width="13" height="7"/><path class="cls-2" d="M18,16v6H6V16H18m1-1H5v8H19V15Z"/><rect class="cls-3" width="24" height="24"/><polygon class="cls-4" points="0 9 0 18 24 18 24 9 22 7 2 7 0 9"/><rect class="cls-5" x="4" y="7" width="16" height="6"/><polygon class="cls-6" points="0 9 24 9 22 7 2 7 0 9"/><polygon class="cls-7" points="18 7 20 9 4 9 6 7 18 7"/><rect class="cls-5" x="4" y="14" width="16" height="3"/><rect class="cls-1" x="6" y="15" width="12" height="7"/><line class="cls-8" x1="17" y1="20" x2="7" y2="20"/><line class="cls-8" x1="17" y1="18" x2="7" y2="18"/><rect class="cls-5" x="4" y="11" width="16" height="2"/><polygon class="cls-1" points="18 8 6 8 6 2 14.02 2 18 6 18 8"/><polygon class="cls-6" points="14 2 14 6 18 6 14 2"/></svg>