<svg viewBox="0 0 24 24" xmlns="http://www.w3.org/2000/svg" xmlns:xlink="http://www.w3.org/1999/xlink"><clipPath id="a"><circle cx="12" cy="12" r="11"/></clipPath><clipPath id="b"><path d="m-2.08-2.08h28.16v28.16h-28.16z"/></clipPath><g clip-path="url(#a)"><g clip-path="url(#b)"><path d="m-1.2-1.2h26.4v26.4h-26.4z" fill="#f39200"/></g></g><path d="m16.62 18.82h-9.24v-1.1a7 7 0 0 1 2.45-5.72 7 7 0 0 1 -2.45-5.72v-1.1h9.24v1.1a7 7 0 0 1 -2.45 5.72 7 7 0 0 1 2.45 5.72zm-7-2.2h4.68a4.46 4.46 0 0 0 -2.3-3.43 4.46 4.46 0 0 0 -2.34 3.43zm0-9.24a4.42 4.42 0 0 0 2.38 3.43 4.44 4.44 0 0 0 2.34-3.43z" fill="#595857"/></svg>