<svg width="124" height="125" viewBox="0 0 124 125" fill="none" xmlns="http://www.w3.org/2000/svg">
<path fill-rule="evenodd" clip-rule="evenodd" d="M28.1846 124.5H107.094V0.5H28.1846V124.5Z" fill="#D4CAC8"/>
<path fill-rule="evenodd" clip-rule="evenodd" d="M45.0938 73.7731H90.1847V6.13672H45.0938V73.7731Z" fill="#495A6B"/>
<path fill-rule="evenodd" clip-rule="evenodd" d="M45.0938 79.4094H90.1847V28.6821H45.0938V79.4094Z" fill="#8B7E79"/>
<path fill-rule="evenodd" clip-rule="evenodd" d="M90.1847 79.4094H45.0938V28.6821H90.1847V79.4094ZM85.1847 33.6821H50.0938V74.4094H85.1847V33.6821Z" fill="#595857"/>
<path fill-rule="evenodd" clip-rule="evenodd" d="M28.1846 34.3181H39.4573V23.0454H28.1846V34.3181Z" fill="#595857"/>
<path fill-rule="evenodd" clip-rule="evenodd" d="M28.1846 51.2273H39.4573V39.9546H28.1846V51.2273Z" fill="black"/>
<path fill-rule="evenodd" clip-rule="evenodd" d="M45.0938 23.0458H90.1847V28.6821H45.0938V23.0458Z" fill="black"/>
<path fill-rule="evenodd" clip-rule="evenodd" d="M16.9091 77.6336H0V92.7109H16.9091V107.591L45.0909 85.9811L16.9091 62.5V77.6336Z" fill="#E94F35"/>
</svg>
