<svg width="124" height="125" viewBox="0 0 124 125" fill="none" xmlns="http://www.w3.org/2000/svg">
<g clip-path="url(#clip0_1447_213453)">
<path d="M101 1H23V124.008H101V1Z" fill="#D4CAC8"/>
<path d="M90 6.97607H45V90.6387H90V6.97607Z" fill="#595857"/>
<path d="M85 40.8394H51V80.6787H85V40.8394Z" fill="#8B7E79"/>
<path d="M90 85.6587H45V90.6386H90V85.6587Z" fill="#18274A"/>
<path d="M90 12.9517H45V34.8633H90V12.9517Z" fill="#18274A"/>
<path d="M90 6.97607H45V28.8877H90V6.97607Z" fill="#495A6B"/>
<path d="M33.5 27.8914C36.5376 27.8914 39 25.4388 39 22.4135C39 19.3881 36.5376 16.9355 33.5 16.9355C30.4624 16.9355 28 19.3881 28 22.4135C28 25.4388 30.4624 27.8914 33.5 27.8914Z" fill="#4D4D4D"/>
<path d="M33.5 43.8274C36.5376 43.8274 39 41.3749 39 38.3495C39 35.3241 36.5376 32.8716 33.5 32.8716C30.4624 32.8716 28 35.3241 28 38.3495C28 41.3749 30.4624 43.8274 33.5 43.8274Z" fill="#94B654"/>
<path d="M93 125.178C110.121 125.178 124 111.931 124 95.589C124 79.2475 110.121 66 93 66C75.8792 66 62 79.2475 62 95.589C62 111.931 75.8792 125.178 93 125.178Z" fill="#94B654"/>
<path d="M77.5 95.5894C77.5 92.6634 78.4091 89.803 80.1122 87.3701C81.8154 84.9371 84.2362 83.0409 87.0684 81.9211C89.9007 80.8013 93.0172 80.5084 96.0239 81.0792C99.0306 81.6501 101.792 83.0591 103.96 85.1281C106.128 87.1972 107.604 89.8333 108.202 92.7032C108.8 95.573 108.493 98.5477 107.32 101.251C106.147 103.954 104.16 106.265 101.611 107.891C99.0624 109.516 96.0656 110.384 93 110.384" stroke="white" stroke-width="7" stroke-miterlimit="10"/>
<path d="M65 95.5889L77.5 112.067L90 95.5889H65Z" fill="white"/>
</g>
<defs>
<clipPath id="clip0_1447_213453">
<rect width="124" height="124" fill="white" transform="translate(0 0.5)"/>
</clipPath>
</defs>
</svg>
