<svg xmlns="http://www.w3.org/2000/svg" viewBox="0 0 48 48"><defs><style>.cls-1{fill:#18274a;}.cls-2{fill:#fff;}</style></defs><title>Asset 13</title><g id="Layer_2" data-name="Layer 2"><g id="Layer_1-2" data-name="Layer 1"><rect class="cls-1" x="0.5" y="0.5" width="47" height="47" rx="3.5"/><path class="cls-2" d="M44,1a3,3,0,0,1,3,3V44a3,3,0,0,1-3,3H4a3,3,0,0,1-3-3V4A3,3,0,0,1,4,1H44m0-1H4A4,4,0,0,0,0,4V44a4,4,0,0,0,4,4H44a4,4,0,0,0,4-4V4a4,4,0,0,0-4-4Z"/><path class="cls-2" d="M26.42,15.67H20.25V33.35H15.36V15.67H9.21v-4H26.42Z"/><path class="cls-2" d="M38.2,37H34.55V35.36h0a4.09,4.09,0,0,1-3.66,1.92,4.5,4.5,0,0,1-3.57-1.57,6.47,6.47,0,0,1-1.35-4.37,7.08,7.08,0,0,1,1.49-4.7,4.86,4.86,0,0,1,3.9-1.76,3.32,3.32,0,0,1,3.19,1.64h0v-7H38.2Zm-3.58-5.75v-.89A2.79,2.79,0,0,0,34,28.43a2.36,2.36,0,0,0-3.63.19,4.4,4.4,0,0,0-.69,2.62,3.87,3.87,0,0,0,.66,2.4,2.2,2.2,0,0,0,1.83.84,2.15,2.15,0,0,0,1.8-.89A3.67,3.67,0,0,0,34.62,31.24Z"/></g></g></svg>