<svg width="140" height="22" viewBox="0 0 140 22" fill="none" xmlns="http://www.w3.org/2000/svg">
<path fill-rule="evenodd" clip-rule="evenodd" d="M19.1011 16.5479V4.59112H31.1539L30.0479 6.51973H21.669V9.39122L29.6216 9.38802V11.2072L21.669 11.2053V14.5483H31.1315V16.5479H19.1011Z" fill="white"/>
<path fill-rule="evenodd" clip-rule="evenodd" d="M97.0858 16.5479V4.59112H109.1L107.996 6.51973H99.6525V9.39122L107.605 9.38802V11.2072L99.6525 11.2053V14.5483H109.115V16.5479H97.0858Z" fill="white"/>
<path fill-rule="evenodd" clip-rule="evenodd" d="M40.3349 16.5479V6.52549L34.7279 6.52677V4.59112H48.5527L47.4474 6.52805L42.9048 6.52549V16.5479H40.3349Z" fill="white"/>
<path fill-rule="evenodd" clip-rule="evenodd" d="M52.3306 16.5474H54.8985V4.58939H52.3306V16.5474Z" fill="white"/>
<path fill-rule="evenodd" clip-rule="evenodd" d="M3.48274 16.5493C1.55854 16.5493 0 14.9892 0 13.0644V8.07624C0 6.15147 1.55854 4.59131 3.48274 4.59131H13.5608L12.5252 6.52504H4.16164C3.26219 6.52504 2.53406 7.2549 2.53406 8.15428V12.8943C2.53662 13.8122 3.28137 14.5548 4.19872 14.5542H10.67C11.5772 14.5542 12.313 13.8186 12.313 12.9102V11.6072H7.66228V9.67287H14.7882V13.0644C14.7882 14.9892 13.2284 16.5493 11.3048 16.5493H11.3036H3.48274Z" fill="white"/>
<path fill-rule="evenodd" clip-rule="evenodd" d="M81.463 16.5493C79.5394 16.5493 77.9803 14.9892 77.9803 13.0644V8.07625C77.9809 6.15211 79.5394 4.59259 81.463 4.59259H91.5276L90.4914 6.52952H82.1432C81.2431 6.52952 80.5118 7.25747 80.5066 8.15876V12.9115C80.5066 13.8167 81.2392 14.5497 82.1432 14.5497H88.649C89.5529 14.5497 90.2862 13.8167 90.2862 12.9115V11.6028H85.6368V9.67287H92.7621V13.0644C92.7621 14.9892 91.2029 16.5493 89.28 16.5493H81.463Z" fill="white"/>
<path fill-rule="evenodd" clip-rule="evenodd" d="M71.2864 16.5493V8.1223C71.2852 7.24211 70.5717 6.52952 69.6927 6.52952H62.274V16.5525H59.7048V4.58939H70.3467C72.2703 4.58939 73.8301 6.15019 73.8301 8.07433V8.07433V16.5493H71.2864Z" fill="white"/>
<path fill-rule="evenodd" clip-rule="evenodd" d="M131.017 4.85767L130.068 6.60654H126.945V0.308962C126.945 0.138169 127.084 0 127.254 0H130.708C130.878 0 131.017 0.138169 131.017 0.308962V4.85639V4.85767Z" fill="#B9B8C7"/>
<path fill-rule="evenodd" clip-rule="evenodd" d="M131.017 4.01196V4.6043V5.16721V5.7314C131.018 7.98944 129.191 9.82083 126.935 9.8221C126.239 9.82274 125.556 9.64619 124.948 9.30845L124.555 9.082L124.406 8.99565L120.182 6.55978C120.033 6.47342 119.982 6.28344 120.068 6.13439C120.068 6.13439 120.068 6.13439 120.068 6.13439L121.792 3.14392C121.877 2.99616 122.065 2.94499 122.213 3.02878C122.214 3.02942 122.214 3.02942 122.214 3.03006L127.442 6.04996C128.568 6.7165 130.02 6.34421 130.686 5.21774C130.903 4.85249 131.016 4.43606 131.017 4.01196" fill="white"/>
<path fill-rule="evenodd" clip-rule="evenodd" d="M124.121 12.0958L126.109 12.0427L127.676 14.7453L122.221 17.8969C122.074 17.982 121.886 17.9321 121.8 17.7844L120.074 14.7926C119.988 14.6442 120.039 14.4536 120.188 14.3679H120.188L124.121 12.0958Z" fill="#B9B8C7"/>
<path fill-rule="evenodd" clip-rule="evenodd" d="M123.391 12.5163L123.903 12.2202L124.391 11.9419L124.883 11.663C126.838 10.5346 129.336 11.2057 130.463 13.1605C130.809 13.7599 130.996 14.4373 131.01 15.1288V20.6344C131.01 20.8059 130.87 20.9453 130.699 20.9453H127.25C127.08 20.9459 126.941 20.8091 126.941 20.6389V20.637V14.5972C126.955 13.2884 125.907 12.2157 124.6 12.2003C124.176 12.1959 123.758 12.3046 123.391 12.5163" fill="white"/>
<path fill-rule="evenodd" clip-rule="evenodd" d="M133.844 14.4477L132.807 12.7519L134.363 10.0416L139.815 13.1946C139.962 13.2803 140.012 13.469 139.928 13.6168L138.201 16.6015C138.116 16.7486 137.927 16.7991 137.779 16.7141L133.844 14.4477Z" fill="#B9B8C7"/>
<path fill-rule="evenodd" clip-rule="evenodd" d="M134.574 14.8684L134.061 14.5722L133.576 14.2875L133.089 14.0022C131.136 12.8726 130.467 10.3721 131.596 8.41726C131.942 7.81852 132.433 7.31766 133.025 6.96072L133.417 6.73428L133.565 6.64856L137.788 4.20757C137.937 4.1225 138.126 4.17367 138.212 4.32144L139.938 7.3119C140.023 7.45903 139.973 7.64773 139.826 7.73281C139.826 7.73345 139.826 7.73345 139.825 7.73409L134.6 10.754C133.461 11.3962 133.057 12.8412 133.699 13.9818C133.906 14.3502 134.208 14.656 134.574 14.8684" fill="white"/>
</svg>
