<svg width="22" height="20" viewBox="0 0 22 20" fill="none" xmlns="http://www.w3.org/2000/svg">
<path d="M0.498993 19V3.232L3.84799 1H18.148L21.499 3.232V19H0.498993Z" fill="#8ACED1"/>
<path d="M22 19.5H0V2.965L0.445 2.665L3.445 0.665L3.7 0.5H18.3L18.552 0.668L21.552 2.668L21.997 2.968V19.5H22ZM4 1.5L1 3.5V18.5H21V3.5L18 1.5H4Z" fill="#8ACED1"/>
<path d="M1.99899 3.5H0.998993L4.99899 14.5H16.999L20.999 3.5H19.999L16.299 13.5H5.69899L1.99899 3.5Z" fill="#C2E4E5"/>
<path d="M19.299 18.5H20.999L15.999 13.5H5.99899L0.998993 18.5H2.69899L6.69899 14.5H15.299L19.299 18.5Z" fill="#C2E4E5"/>
<path d="M5.99899 18.5H7.99899V7.5H5.99899V18.5Z" fill="white"/>
<path d="M13.999 18.5H15.999V7.5H13.999V18.5Z" fill="white"/>
<path d="M0.998993 3.5L3.99899 1.5H17.999L20.999 3.5H0.998993Z" fill="#C2E4E5"/>
</svg>
