<svg width="24" height="24" viewBox="0 0 24 24" fill="none" xmlns="http://www.w3.org/2000/svg">
<g clip-path="url(#clip0_289_7203)">
<path d="M1.52002 20.28V5.16711L4.87002 3.03003H19.17L22.52 5.16711V20.28H1.52002Z" fill="#8ACED1"/>
<path d="M19 3.50911L22 5.42578V19.8008H2V5.42578L5 3.50911H19ZM19.3 2.55078H4.72L4.47 2.70411L1.47 4.62078L1 4.90828V20.7591H23V4.90828L22.56 4.62078L19.56 2.70411L19.3 2.55078Z" fill="#8ACED1"/>
<path d="M3.02002 5.42578H2.02002L6.02002 15.9674H18.02L22.02 5.42578H21.02L17.32 15.0091H6.72002L3.02002 5.42578Z" fill="#C2E4E5"/>
<path d="M20.32 19.8009H22.02L17.02 15.0093H7.02002L2.02002 19.8009H3.72002L7.72002 15.9676H16.32L20.32 19.8009Z" fill="#C2E4E5"/>
<path d="M9.02002 9.25928H7.02002V19.8009H9.02002V9.25928Z" fill="white"/>
<path d="M17.02 9.25928H15.02V19.8009H17.02V9.25928Z" fill="white"/>
<path d="M2.02002 5.42594L5.02002 3.50928H19.02L22.02 5.42594H2.02002Z" fill="#C2E4E5"/>
<path d="M18 23.5C21.3137 23.5 24 20.9256 24 17.75C24 14.5744 21.3137 12 18 12C14.6863 12 12 14.5744 12 17.75C12 20.9256 14.6863 23.5 18 23.5Z" fill="#94B654"/>
<path d="M19 13.9167H17V21.5834H19V13.9167Z" fill="white"/>
<path d="M22 16.7917H14V18.7084H22V16.7917Z" fill="white"/>
</g>
<defs>
<clipPath id="clip0_289_7203">
<rect width="24" height="23" fill="white" transform="translate(0 0.5)"/>
</clipPath>
</defs>
</svg>
