<svg viewBox="0 0 24 24" xmlns="http://www.w3.org/2000/svg"><path d="m21.66 4.76-1.42-1.41a1 1 0 1 0 -1.41 1.41l-1.17 1.17a1 1 0 0 0 0 1.41 1 1 0 0 0 1.41 0l1.17-1.17a1 1 0 0 0 .71.3 1 1 0 0 0 .71-.3 1 1 0 0 0 0-1.41z" fill="#595857"/><path d="m13 4.06v-1.06h2v-2h-6v2h2v1.06a9 9 0 1 0 2 0z" fill="#748391"/><path d="m0 0h24v24h-24z" fill="none"/><path d="m3 13a9 9 0 1 1 9 9 9 9 0 0 1 -9-9z" fill="#e94f35"/><path d="m12 13v-6.81" fill="none" stroke="#d0d6da" stroke-linecap="round" stroke-linejoin="round"/><circle cx="12" cy="13" fill="#d0d6da" r="1.13"/><g fill="none" stroke="#fff" stroke-linecap="round" stroke-linejoin="round"><path d="m12 21v-2"/><path d="m20 13h-2"/><path d="m6 13h-2"/></g><path d="m21.66 4.76-1.42-1.41a1 1 0 1 0 -1.41 1.41l1.41 1.41a1 1 0 0 0 .71.3 1 1 0 0 0 .71-.3 1 1 0 0 0 0-1.41z" fill="#748391"/></svg>